<?xml version="1.0" encoding="iso-8859-1"?>
<!-- Uploaded to: SVG Repo, www.svgrepo.com, Generator: SVG Repo Mixer Tools -->
<svg height="800px" width="800px" version="1.1" id="Layer_1" xmlns="http://www.w3.org/2000/svg" xmlns:xlink="http://www.w3.org/1999/xlink" 
	 viewBox="0 0 511.962 511.962" xml:space="preserve">
<path style="fill:#ED5564;" d="M383.972,127.741c-5.906,0-10.656,4.781-10.656,10.655v29.139h21.311v-29.139
	C394.627,132.522,389.845,127.741,383.972,127.741z"/>
<polygon style="fill:#CCD1D9;" points="310.414,362.378 329.757,170.488 421.468,170.394 501.275,270.105 501.087,362.378 "/>
<polygon style="fill:#5D9CEC;" points="484.152,245.044 320.101,245.044 320.101,166.613 420.156,168.832 "/>
<path style="fill:#CCD1D9;" d="M426.593,159.739l-106.492,0.094l-21.467,213.202h213.109l0.219-106.648L426.593,159.739z
	 M490.462,351.709H322.195l17.186-170.565l76.994-0.062l74.244,92.774L490.462,351.709z"/>
<path style="fill:#E6E9ED;" d="M341.287,351.709c0,11.779-9.561,21.326-21.342,21.326H21.328C9.547,373.035,0,363.488,0,351.709
	V117.07c0-11.78,9.547-21.326,21.328-21.326h298.617c11.781,0,21.342,9.546,21.342,21.326V351.709z"/>
<path style="fill:#434A54;" d="M362.597,362.894c0,29.451,23.904,53.324,53.34,53.324c29.467,0,53.34-23.873,53.34-53.324
	c0-29.45-23.873-53.323-53.34-53.323C386.502,309.571,362.597,333.444,362.597,362.894z"/>
<path style="fill:#F5F7FA;" d="M405.283,362.894c0,5.891,4.781,10.672,10.654,10.672c5.906,0,10.656-4.781,10.656-10.672
	c0-5.89-4.75-10.67-10.656-10.67C410.064,352.224,405.283,357.004,405.283,362.894z"/>
<path style="fill:#434A54;" d="M54.308,362.894c0,28.889,23.436,52.324,52.34,52.324s52.324-23.436,52.324-52.324
	s-23.42-52.323-52.324-52.323S54.308,334.006,54.308,362.894z"/>
<path style="fill:#F5F7FA;" d="M95.978,362.894c0,5.891,4.781,10.672,10.67,10.672c5.875,0,10.656-4.781,10.656-10.672
	c0-5.89-4.781-10.67-10.656-10.67C100.759,352.224,95.978,357.004,95.978,362.894z"/>
<path style="fill:#DA4453;" d="M138.646,255.715c-11.748,0-21.342-9.593-21.342-21.327v-21.342c0-11.718,9.594-21.311,21.342-21.311
	h85.307c11.748,0,21.342,9.593,21.342,21.311v21.342c0,11.734-9.594,21.327-21.342,21.327H138.646z"/>
<path style="fill:#ED5564;" d="M213.296,266.386c0,11.719-9.592,21.326-21.326,21.326h-21.326c-11.75,0-21.342-9.607-21.342-21.326
	v-85.321c0-11.733,9.592-21.326,21.342-21.326h21.326c11.734,0,21.326,9.593,21.326,21.326V266.386z"/>
</svg>